<?xml version="1.0" encoding="utf-8"?>
<!-- Generator: Adobe Illustrator 14.0.0, SVG Export Plug-In  -->
<!DOCTYPE svg PUBLIC "-//W3C//DTD SVG 1.1//EN" "http://www.w3.org/Graphics/SVG/1.1/DTD/svg11.dtd" [
	<!ENTITY ns_flows "http://ns.adobe.com/Flows/1.0/">
]>
<svg version="1.1"
	 xmlns="http://www.w3.org/2000/svg" xmlns:xlink="http://www.w3.org/1999/xlink" xmlns:a="http://ns.adobe.com/AdobeSVGViewerExtensions/3.0/"
	 x="0px" y="0px" width="158px" height="157px" viewBox="16.868 45.187 158 157" enable-background="new 16.868 45.187 158 157"
	 xml:space="preserve">
<defs>
</defs>
<path display="none" fill="none" stroke="#000000" stroke-width="4" d="M96.951,97.437l-27.25-26.75c0,0-4.75-6-1.25-14.25
	c0,0,7.75-19-6.75-27c0,0-15-10.25-25.25,0c0,0-14.5,7-6,23.25c0,0-17-7.75-23.25,5.5c0,0-13.5,15.75,3,29c0,0,10,10,24,3.5
	c0,0,8-3.75,12.75,0.75l29,27.25"/>
<path display="none" fill="none" stroke="#000000" stroke-width="4" d="M77.128,116.983l-26.75,27.25c0,0-6,4.75-14.25,1.25
	c0,0-19-7.75-27,6.75c0,0-10.25,15,0,25.25c0,0,7,14.5,23.25,6c0,0-7.75,17,5.5,23.25c0,0,15.75,13.5,29-3c0,0,10-10,3.5-24
	c0,0-3.75-8,0.75-12.75l27.25-29"/>
<path display="none" fill="none" stroke="#000000" stroke-width="4" d="M96.929,139.806l27.25,26.75c0,0,4.75,6,1.25,14.25
	c0,0-7.75,19,6.75,27c0,0,15,10.25,25.25,0c0,0,14.5-7,6-23.25c0,0,17,7.75,23.25-5.5c0,0,13.5-15.75-3-29c0,0-10-10-24-3.5
	c0,0-8,3.75-12.75-0.75l-29-27.25"/>
<path display="none" fill="none" stroke="#000000" stroke-width="4" d="M116.325,119.854l26.75-27.25c0,0,6-4.75,14.25-1.25
	c0,0,19,7.75,27-6.75c0,0,10.25-15,0-25.25c0,0-7-14.5-23.25-6c0,0,7.75-17-5.5-23.25c0,0-15.75-13.5-29,3c0,0-10,10-3.5,24
	c0,0,3.75,8-0.75,12.75l-27.25,29"/>
<path display="none" fill="none" stroke="#000000" stroke-width="4" d="M33.701,182.687c0,0-21,22-9.5,26c0,0,7,11,20-17.5"/>
<path display="none" fill="none" stroke="#000000" stroke-width="4" d="M161.201,177.187c24,32,11.5,31,11.5,31
	c-10.5,11-23-22-23-22"/>
<path display="none" fill="none" stroke="#000000" stroke-width="4" d="M126.701,87.187c0,0,35,30.5,11.5,74c0,0-14.5,32.5-60.5,42"
	/>
<path display="none" fill="none" stroke="#000000" stroke-width="4" d="M162.828,87.187c0,0,34.627,46-1,91.5"/>
<path display="none" fill="none" stroke="#000000" stroke-width="4" d="M149.701,188.687c0,0-51.5,39-113.5-3.5c0,0-52-37-9-98"/>
<path display="none" fill="none" stroke="#000000" stroke-width="4" d="M170.877,74.187c0,6.627-5.373,12-12,12H29.701
	c-6.627,0-12-5.373-12-12v-1.5c0-6.627,5.373-12,12-12h129.176c6.627,0,12,5.373,12,12V74.187z"/>
<path display="none" d="M83.201,74.687c0,3.038-2.462,5.5-5.5,5.5l0,0c-3.038,0-5.5-2.462-5.5-5.5v-12c0-3.038,2.462-5.5,5.5-5.5
	l0,0c3.038,0,5.5,2.462,5.5,5.5V74.687z"/>
<path display="none" d="M90.201,62.854c0-2.577,2.089-4.667,4.667-4.667l0,0c2.578,0,4.667,2.089,4.667,4.667v6.917
	c0,2.577-2.089,4.667-4.667,4.667l0,0c-2.577,0-4.667-2.089-4.667-4.667V62.854z"/>
<path display="none" d="M109.701,59.187c0,0,8-6,14,0H109.701z"/>
<path display="none" d="M99.534,58.521c0,0-8.36-12.167-19.597,0H99.534z"/>
<path display="none" d="M36.701,58.817c0,0,9-11.87,18,0H36.701z"/>
<path display="none" d="M52.474,60.016c0,0,13.391-23.459,30.728,0.525L52.474,60.016z"/>
<polyline fill="none" stroke="#FE6C08" stroke-width="4" points="112.009,188.258 168.259,49.937 168.259,199.937 "/>
<polyline fill="none" stroke="#FE6C08" stroke-width="4" points="30.879,107.966 166.816,49.937 49.99,171.105 "/>
<line fill="none" stroke="#FE6C08" stroke-width="4" x1="19.701" y1="49.937" x2="169.701" y2="49.937"/>
<path fill="none" stroke="#FE6C08" stroke-width="4" d="M33.042,49.937c0,0,44.936,14.955,13.093,51.517
	c0,0,42.898-0.423,28.604,43.981c0,0,41.66-18.449,42.529,29.888c0,0,34.283-33.415,50.99,11.84"/>
<path fill="none" stroke="#FE6C08" stroke-width="4" d="M59.485,49.937c0,0,33.68,10.677,10.47,41.349
	c0,0,31.838,0.744,24.025,35.294c0,0,36.356-14.195,34.104,23.924c0,0,23.469-22.221,40.175,6.246"/>
<path fill="none" stroke="#FE6C08" stroke-width="4" d="M90.254,49.937c0,0,28.232,9.748,5.583,30.3c0,0,29.393-0.038,18.035,24.612
	c0,0,23.529-11.104,25.196,16.871c0,0,21.379-18.012,29.191,7.779"/>
<path fill="none" stroke="#FE6C08" stroke-width="4" d="M118.379,49.937c0,0,21.802,3.692,3.93,19c0,0,19.373-1.168,10.484,16.289
	c0,0,18.921-7.254,16.557,11.21c0,0,13.5-17.545,18.909,3.136"/>
<circle display="none" fill="none" stroke="#000000" stroke-width="4" cx="105.951" cy="115.937" r="88.75"/>
<circle display="none" fill="none" stroke="#000000" stroke-width="4" cx="105.608" cy="115.102" r="52.657"/>
<path display="none" d="M104.951,85.687c0,0-7.25,29.5,28.75,33.5c0,0,2,22-27.75,24c0,0-29.25,3-29.25-31.5
	C76.701,111.687,82.701,85.687,104.951,85.687z"/>
<path display="none" fill="none" stroke="#000000" stroke-width="4" d="M61.201,114.604l-21-58.917c0,0,45.779-11.565,63.774-31.384
	c0.335-0.369,0.66-0.741,0.976-1.116c0,0,24.75,27,63.75,32l-19.5,59.417l25.5-14.417v30c0,0-4.5,21-24.5,17c0,0-9.5,38.5-45.25,40
	c0,0-20.252,0-37.403-23.353c-3.284-4.472-6.455-9.799-9.347-16.147c0,0-13.5,2.5-21.5-13.5v-36.5L61.201,114.604z"/>
<path display="none" fill="none" stroke="#000000" stroke-width="4" d="M142.593,164.183c0,0,26.608,10.004,47.608,40.004h-170
	c0,0,35.694-41.206,47.347-40.353"/>
<path display="none" fill="none" stroke="#000000" stroke-width="4" d="M149.201,114.604V90.687c-4.563-10.013-14.5-16.5-14.5-16.5
	l-29,6.5l-31.5-6.5c-17,10-14.5,24-14.5,24l1.5,16.417"/>
<path display="none" d="M94.868,116.687l-21.667-9.5C73.201,107.187,82.034,136.687,94.868,116.687z"/>
<path display="none" d="M115.701,116.687l22.5-9.5C138.201,107.187,130.701,133.687,115.701,116.687z"/>
<path display="none" d="M87.701,150.187h35C122.701,150.187,108.201,180.687,87.701,150.187z"/>
<polygon display="none" points="81.701,150.187 88.701,150.187 86.701,161.187 "/>
<polygon display="none" points="121.201,150.187 128.201,150.187 124.201,161.187 "/>
<ellipse display="none" cx="78.451" cy="69.187" rx="12.25" ry="12"/>
<ellipse display="none" cx="121.451" cy="69.187" rx="12.25" ry="12"/>
<path display="none" d="M84.701,124.187c0,0,19.5-5.5,31,1c0,0,5.5-23.5-15.75-26C99.951,99.187,82.201,98.187,84.701,124.187z"/>
<path display="none" fill="none" stroke="#000000" stroke-width="4" d="M39.701,146.187c0,0-15.5,11-25-16l22-39c0,0-6-63.5,60-73.5
	c0,0,69,0,64.5,71.5l23,41c0,0,5.5,30-24,16.5l2,54c0,0-6,3.5-13,0c0,0-23-26.5-40,0c0,0-13,10-28.5-9.5c0,0-12-9.5-28.25,8
	c0,0-11.25,10-15.75-2.5L39.701,146.187z"/>
<path display="none" fill="#0C0101" d="M114.201,69.187c0,0-15-37.5,22.5-54.5l11.5,12.5c0,0-31.5,11-29.5,42H114.201z"/>
<path display="none" fill="#0C0101" d="M100.201,105.687l-39.5-17.5c0,0,4.5,24,19.75,26
	C80.451,114.187,92.201,117.187,100.201,105.687z"/>
<path display="none" fill="#0C0101" d="M127.701,105.687l39-17.5c0-0.001,5.25,14.176-13,24
	C153.701,112.187,143.701,119.687,127.701,105.687z"/>
<polygon display="none" fill="#0C0101" points="42.201,120.687 65.701,136.687 74.701,128.687 100.201,145.187 113.201,133.187 
	127.701,145.187 152.201,128.687 158.701,136.687 183.201,120.687 160.701,158.687 152.201,150.687 127.701,167.687 
	111.238,155.687 99.201,167.687 75.201,150.687 66.201,158.687 "/>
<path display="none" fill="none" stroke="#0C0101" stroke-width="5" d="M98.201,56.187c-33-10-47.5-1.5-47.5-1.5
	c-41.5,14-38,72.021-38,72.021c9.5,55.979,46,69.979,46,69.979c20.5,11.5,41.5,2.5,41.5,2.5c17.5,10.5,29.519-0.5,29.519-0.5
	c16.019,7,31.981,0,31.981,0c54.5-25,51-78,51-78c5-49.5-38-66.75-38-66.75c-29-5.75-44.981,2.25-44.981,2.25l-13.019-6.5
	L98.201,56.187z"/>
<path display="none" stroke="#0C0C0C" d="M96.535,92.687c0,9.389-10.283,17-20.5,17s-19.5-8.611-19.5-18s10.283-14,20.5-14
	S96.535,83.298,96.535,92.687z"/>
<path display="none" stroke="#0C0C0C" d="M166.035,92.687c0,9.389-10.283,17-20.5,17s-19.5-8.611-19.5-18s10.283-14,20.5-14
	S166.035,83.298,166.035,92.687z"/>
<path display="none" stroke="#0C0C0C" d="M122.701,146.521h-21.333c0,0,1.333-24.667,10.667-27.333
	C112.035,119.187,123.534,116.187,122.701,146.521z"/>
<path display="none" fill="none" stroke="#0C0C0C" stroke-width="5" d="M159.535,169.188c58.333-46.333,35.667-96.667,35.667-96.667
	c-24-66.333-85-60.334-85-60.334c-64.333,4.999-77,60.334-77,60.334c-17.667,62,34,94.667,34,94.667s-10.333,47.333,5,34l1.667-8
	c0,0,0.333,16.333,7.667,8l2.333-8.333c0,0,2.666,17,7.833,8l2.5-9c0,0,0.667,18,7.167,9.333l2.833-9c0,0,0.376,15.333,7.855,9.333
	l2.273-9.333c0,0,1.291,18.667,8.415,8l1.457-7.667c0,0,1.334,16,8.667,7.667l1.667-8.667c0,0,1.667,19.333,8.333,8.333l1-8.333
	c0,0,3.333,19,9.333,9l1-8.333c0,0,1.667,14.404,6.667,11.369c0,0,7.333-4.703-3-37.036"/>
<line display="none" fill="none" stroke="#FE6C08" stroke-width="4" x1="109.31" y1="0" x2="109.31" y2="108.711"/>
<polyline display="none" fill="none" stroke="#FE6C08" stroke-width="4" points="90.63,128.92 65.82,134.146 56.771,97.212 "/>
<polyline display="none" fill="none" stroke="#FE6C08" stroke-width="4" points="126.239,128.92 151.924,134.146 161.264,97.212 "/>
<polyline display="none" fill="none" stroke="#FE6C08" stroke-width="4" points="126.822,148.083 157.47,160.279 166.226,141.463 
	"/>
<polyline display="none" fill="none" stroke="#FE6C08" stroke-width="4" points="90.046,147.387 59.301,160.279 51.226,141.463 "/>
<polyline display="none" fill="none" stroke="#FE6C08" stroke-width="4" points="122.445,161.324 151.632,179.442 139.957,200 "/>
<polyline display="none" fill="none" stroke="#FE6C08" stroke-width="4" points="95.883,162.021 65.82,179.442 77.496,200 "/>
<polyline display="none" fill="none" stroke="#FE6C08" stroke-width="4" points="119.234,174.564 131.201,184.611 124.779,197.212 
	"/>
<polyline display="none" fill="none" stroke="#FE6C08" stroke-width="4" points="98.218,174.564 86.251,184.611 92.235,197.212 "/>
<ellipse display="none" fill="none" stroke="#FE6C08" stroke-width="4" cx="108.726" cy="173.519" rx="10.216" ry="12.195"/>
<path display="none" fill="none" stroke="#FE6C08" stroke-width="4" d="M100.494,166.299c0,0-21.248-14.035-4.319-51.317
	c0,0,14.302-13.589,27.436,2.439c0,0,10.669,34.906-6.07,48.878"/>
<path display="none" fill="none" stroke="#FE6C08" stroke-width="4" d="M93.188,122.41c0,0,14.844-14.523,31.682,0"/>
<path display="none" fill="none" stroke="#FE6C08" stroke-width="4" d="M91.534,127.771c0,0,16.317-15.085,34.267,0"/>
<path display="none" fill="none" stroke="#FE6C08" stroke-width="4" d="M89.813,144.592c0,0,17.869-28.833,37.071-0.998"/>
<path display="none" fill="none" stroke="#FE6C08" stroke-width="4" d="M90.046,147.387c0,0,17.272-21.603,36.51,0"/>
<path display="none" fill="none" stroke="#FE6C08" stroke-width="4" d="M94.917,160.279c0,0,10.89-24.739,28.111-2.439"/>
<path display="none" fill="none" stroke="#FE6C08" stroke-width="4" d="M95.646,161.324c0,0,9.798-16.028,26.909-1.045"/>
</svg>
